<svg>
<symbol id="left" width="22" height="16" viewBox="0 0 22 16" xmlns="http://www.w3.org/2000/svg">
<path d="M7.18546 0.240635C7.48517 -0.0802098 7.98399 -0.0802097 8.29419 0.240635C8.5939 0.550629 8.5939 1.06657 8.29419 1.37585L2.67228 7.19069L21.2238 7.19069C21.6563 7.19142 22 7.54691 22 7.99425C22 8.44149 21.6563 8.80857 21.2238 8.80857L2.67228 8.80856L8.29419 14.6126C8.5939 14.9335 8.5939 15.4501 8.29419 15.7594C7.98399 16.0802 7.48447 16.0802 7.18546 15.7594L0.232644 8.56798C-0.0775499 8.258 -0.0775499 7.74198 0.232644 7.43272L7.18546 0.240635Z"/>
</symbol>
<symbol id="right" width="22" height="16" viewBox="0 0 22 16" xmlns="http://www.w3.org/2000/svg">
<path d="M14.8145 15.7594C14.5148 16.0802 14.016 16.0802 13.7058 15.7594C13.4061 15.4494 13.4061 14.9334 13.7058 14.6242L19.3277 8.80931L0.7762 8.80931C0.343699 8.80859 6.59772e-07 8.45309 6.98879e-07 8.00575C7.37978e-07 7.55851 0.343699 7.19143 0.7762 7.19143L19.3277 7.19144L13.7058 1.38738C13.4061 1.06653 13.4061 0.549893 13.7058 0.240633C14.016 -0.0802104 14.5155 -0.0802104 14.8145 0.240633L21.7674 7.43202C22.0775 7.742 22.0775 8.25802 21.7674 8.56728L14.8145 15.7594Z"/>
</symbol>
<symbol id="side-left" width="12" height="20" viewBox="0 0 12 20" xmlns="http://www.w3.org/2000/svg">
<path d="M11.6654 17.478C12.1009 17.9045 12.1009 18.5988 11.6654 19.0252L10.9961 19.6805C10.7856 19.8866 10.5054 20 10.2061 20C9.90673 20 9.62607 19.8866 9.416 19.6805L0.325912 10.7805C0.114593 10.574 -0.000824928 10.2984 5.72205e-06 10.0037C-0.000824928 9.71016 0.114593 9.43455 0.325912 9.22805L9.4243 0.319512C9.63438 0.113415 9.91503 0 10.214 0C10.5133 0 10.7939 0.113415 11.004 0.319512L11.6737 0.974797C11.8842 1.18089 12 1.45528 12 1.74878C12 2.04187 11.8842 2.31667 11.6737 2.52195L4.03253 10.0041L11.6654 17.478Z"/>
<path d="M11.6654 17.478C12.1009 17.9045 12.1009 18.5988 11.6654 19.0252L10.9961 19.6805C10.7856 19.8866 10.5054 20 10.2061 20C9.90673 20 9.62607 19.8866 9.416 19.6805L0.325912 10.7805C0.114593 10.574 -0.000824928 10.2984 5.72205e-06 10.0037C-0.000824928 9.71016 0.114593 9.43455 0.325912 9.22805L9.4243 0.319512C9.63438 0.113415 9.91503 0 10.214 0C10.5133 0 10.7939 0.113415 11.004 0.319512L11.6737 0.974797C11.8842 1.18089 12 1.45528 12 1.74878C12 2.04187 11.8842 2.31667 11.6737 2.52195L4.03253 10.0041L11.6654 17.478Z"/>
</symbol>
<symbol id="side-right" width="12" height="20" viewBox="0 0 12 20" xmlns="http://www.w3.org/2000/svg">
<path d="M0.334625 17.478C-0.100886 17.9045 -0.100886 18.5988 0.334625 19.0252L1.00387 19.6805C1.21436 19.8866 1.4946 20 1.79394 20C2.09327 20 2.37393 19.8866 2.584 19.6805L11.6741 10.7805C11.8854 10.574 12.0008 10.2984 12 10.0037C12.0008 9.71016 11.8854 9.43455 11.6741 9.22805L2.5757 0.319512C2.36562 0.113415 2.08497 0 1.78605 0C1.48671 0 1.20606 0.113415 0.995986 0.319512L0.326321 0.974797C0.115832 1.18089 0 1.45528 0 1.74878C0 2.04187 0.115832 2.31667 0.326321 2.52195L7.96747 10.0041L0.334625 17.478Z"/>
<path d="M0.334625 17.478C-0.100886 17.9045 -0.100886 18.5988 0.334625 19.0252L1.00387 19.6805C1.21436 19.8866 1.4946 20 1.79394 20C2.09327 20 2.37393 19.8866 2.584 19.6805L11.6741 10.7805C11.8854 10.574 12.0008 10.2984 12 10.0037C12.0008 9.71016 11.8854 9.43455 11.6741 9.22805L2.5757 0.319512C2.36562 0.113415 2.08497 0 1.78605 0C1.48671 0 1.20606 0.113415 0.995986 0.319512L0.326321 0.974797C0.115832 1.18089 0 1.45528 0 1.74878C0 2.04187 0.115832 2.31667 0.326321 2.52195L7.96747 10.0041L0.334625 17.478Z"/>
</symbol>
</svg>