<svg width="45" height="38" viewBox="0 0 45 38" fill="none" xmlns="http://www.w3.org/2000/svg">
<path d="M25.8905 17.5518H4.77985L4.46608 14.0202C4.41493 13.4427 3.93557 13 3.36182 13H1.10901C0.496231 13 0 13.5013 0 14.1204C0 14.7394 0.496231 15.2407 1.10901 15.2407H2.34827C3.02538 22.8627 1.27512 3.16291 3.62338 29.5944C3.71409 30.629 4.26727 31.7515 5.22018 32.5144C3.50157 34.7316 5.072 38 7.86745 38C10.1878 38 11.8241 35.6623 11.0284 33.4482H17.097C16.3023 35.6597 17.9355 38 20.2579 38C22.1116 38 23.6198 36.4764 23.6198 34.6038C23.6198 32.7312 22.1116 31.2075 20.2579 31.2075H7.87484C7.03267 31.2075 6.2986 30.694 5.98167 29.946L23.7026 28.8938C24.1861 28.8651 24.5959 28.5225 24.7135 28.0473L26.9663 18.9433C27.1414 18.2379 26.6124 17.5518 25.8905 17.5518ZM7.86745 35.7598C7.23675 35.7598 6.72364 35.2415 6.72364 34.6043C6.72364 33.9671 7.23675 33.4488 7.86745 33.4488C8.49816 33.4488 9.01126 33.9671 9.01126 34.6043C9.01126 35.2415 8.49816 35.7598 7.86745 35.7598ZM20.2585 35.7598C19.6278 35.7598 19.1147 35.2415 19.1147 34.6043C19.1147 33.9671 19.6278 33.4488 20.2585 33.4488C20.8892 33.4488 21.4023 33.9671 21.4023 34.6043C21.4023 35.2415 20.8892 35.7598 20.2585 35.7598ZM22.7597 26.7059L5.68319 27.7197L4.97919 19.7919H24.4709L22.7597 26.7059Z" fill="#1D1D1B"/>
<circle cx="32" cy="13" r="13" fill="#F5F352"/>
<path d="M28.412 13.268C28.272 13.4827 28.1087 13.6647 27.922 13.814C27.7353 13.9633 27.53 14.0893 27.306 14.192C27.0913 14.2853 26.8627 14.3553 26.62 14.402C26.3773 14.4487 26.1347 14.472 25.892 14.472C25.4253 14.472 24.996 14.402 24.604 14.262C24.2213 14.1127 23.8853 13.9027 23.596 13.632C23.3067 13.3613 23.0827 13.03 22.924 12.638C22.7653 12.246 22.686 11.8027 22.686 11.308C22.686 10.804 22.7747 10.3467 22.952 9.936C23.1387 9.52533 23.386 9.18 23.694 8.9C24.0113 8.61067 24.38 8.39133 24.8 8.242C25.2293 8.08333 25.6913 8.004 26.186 8.004C26.8767 7.99467 27.474 8.14867 27.978 8.466C28.4913 8.774 28.8833 9.166 29.154 9.642C29.434 10.1087 29.63 10.6453 29.742 11.252C29.8633 11.8493 29.9333 12.4513 29.952 13.058C29.952 13.6927 29.8913 14.3133 29.77 14.92C29.6487 15.5267 29.4387 16.068 29.14 16.544C28.8507 17.0107 28.4587 17.3887 27.964 17.678C27.4693 17.958 26.8487 18.098 26.102 18.098C25.6913 18.098 25.2993 18.0513 24.926 17.958C24.562 17.8553 24.2307 17.706 23.932 17.51C23.6333 17.3047 23.3813 17.0527 23.176 16.754C22.9707 16.446 22.8353 16.082 22.77 15.662H24.436C24.5573 15.998 24.7767 16.25 25.094 16.418C25.4113 16.5767 25.7473 16.656 26.102 16.656C26.382 16.656 26.6293 16.6187 26.844 16.544C27.0587 16.46 27.25 16.3527 27.418 16.222C27.586 16.0913 27.7307 15.9373 27.852 15.76C27.9733 15.5733 28.0713 15.3773 28.146 15.172C28.2673 14.864 28.342 14.5513 28.37 14.234C28.398 13.9073 28.412 13.5853 28.412 13.268ZM24.31 11.21C24.31 11.7793 24.4733 12.2273 24.8 12.554C25.136 12.8807 25.584 13.044 26.144 13.044C26.396 13.044 26.634 13.0067 26.858 12.932C27.0913 12.848 27.292 12.736 27.46 12.596C27.628 12.4467 27.7587 12.2693 27.852 12.064C27.9547 11.8493 28.0107 11.616 28.02 11.364C28.02 11.1027 27.978 10.8553 27.894 10.622C27.81 10.3887 27.6887 10.188 27.53 10.02C27.3713 9.84267 27.1753 9.70267 26.942 9.6C26.718 9.49733 26.466 9.446 26.186 9.446C25.6447 9.446 25.1967 9.60467 24.842 9.922C24.4967 10.2393 24.3193 10.6687 24.31 11.21ZM37.64 13.268C37.5 13.4827 37.3366 13.6647 37.15 13.814C36.9633 13.9633 36.758 14.0893 36.534 14.192C36.3193 14.2853 36.0906 14.3553 35.848 14.402C35.6053 14.4487 35.3626 14.472 35.12 14.472C34.6533 14.472 34.224 14.402 33.832 14.262C33.4493 14.1127 33.1133 13.9027 32.824 13.632C32.5346 13.3613 32.3106 13.03 32.152 12.638C31.9933 12.246 31.914 11.8027 31.914 11.308C31.914 10.804 32.0026 10.3467 32.18 9.936C32.3666 9.52533 32.614 9.18 32.922 8.9C33.2393 8.61067 33.608 8.39133 34.028 8.242C34.4573 8.08333 34.9193 8.004 35.414 8.004C36.1046 7.99467 36.702 8.14867 37.206 8.466C37.7193 8.774 38.1113 9.166 38.382 9.642C38.662 10.1087 38.858 10.6453 38.97 11.252C39.0913 11.8493 39.1613 12.4513 39.18 13.058C39.18 13.6927 39.1193 14.3133 38.998 14.92C38.8766 15.5267 38.6666 16.068 38.368 16.544C38.0786 17.0107 37.6866 17.3887 37.192 17.678C36.6973 17.958 36.0766 18.098 35.33 18.098C34.9193 18.098 34.5273 18.0513 34.154 17.958C33.79 17.8553 33.4586 17.706 33.16 17.51C32.8613 17.3047 32.6093 17.0527 32.404 16.754C32.1986 16.446 32.0633 16.082 31.998 15.662H33.664C33.7853 15.998 34.0046 16.25 34.322 16.418C34.6393 16.5767 34.9753 16.656 35.33 16.656C35.61 16.656 35.8573 16.6187 36.072 16.544C36.2866 16.46 36.478 16.3527 36.646 16.222C36.814 16.0913 36.9586 15.9373 37.08 15.76C37.2013 15.5733 37.2993 15.3773 37.374 15.172C37.4953 14.864 37.57 14.5513 37.598 14.234C37.626 13.9073 37.64 13.5853 37.64 13.268ZM33.538 11.21C33.538 11.7793 33.7013 12.2273 34.028 12.554C34.364 12.8807 34.812 13.044 35.372 13.044C35.624 13.044 35.862 13.0067 36.086 12.932C36.3193 12.848 36.52 12.736 36.688 12.596C36.856 12.4467 36.9866 12.2693 37.08 12.064C37.1826 11.8493 37.2386 11.616 37.248 11.364C37.248 11.1027 37.206 10.8553 37.122 10.622C37.038 10.3887 36.9166 10.188 36.758 10.02C36.5993 9.84267 36.4033 9.70267 36.17 9.6C35.946 9.49733 35.694 9.446 35.414 9.446C34.8726 9.446 34.4246 9.60467 34.07 9.922C33.7246 10.2393 33.5473 10.6687 33.538 11.21Z" fill="#1D1D1B"/>
</svg>
