<svg>
<symbol id="burger" width="26" height="20" viewBox="0 0 30 24" xmlns="http://www.w3.org/2000/svg">
<path d="M28 2L2 2" stroke-width="2.3" stroke-linecap="round" stroke-linejoin="round"/>
<path d="M28 12L2 12" stroke-width="2.3" stroke-linecap="round" stroke-linejoin="round"/>
<path d="M28 22L2 22" stroke-width="2.3" stroke-linecap="round" stroke-linejoin="round"/>
</symbol>

<symbol id="search" width="24" height="24" viewBox="0 0 24 24" xmlns="http://www.w3.org/2000/svg" stroke="none">
<path fill-rule="evenodd" clip-rule="evenodd" d="M15.1225 16.5856C11.4669 19.5135 6.11579 19.283 2.72702 15.8942C-0.909006 12.2582 -0.909006 6.36305 2.72702 2.72702C6.36304 -0.909007 12.2582 -0.909006 15.8942 2.72702C19.283 6.11579 19.5134 11.4669 16.5856 15.1225L23.697 22.234C24.101 22.638 24.101 23.293 23.697 23.697C23.293 24.101 22.638 24.101 22.234 23.697L15.1225 16.5856ZM4.19004 14.4312C1.36202 11.6032 1.36202 7.01807 4.19004 4.19004C7.01806 1.36202 11.6032 1.36202 14.4312 4.19004C17.2571 7.01599 17.2592 11.5965 14.4374 14.425C14.4353 14.427 14.4333 14.4291 14.4312 14.4312C14.4291 14.4333 14.427 14.4353 14.425 14.4374C11.5965 17.2592 7.01599 17.2572 4.19004 14.4312Z"/>
</symbol>

<symbol id="call" width="24" height="24" viewBox="0 0 24 24" xmlns="http://www.w3.org/2000/svg" stroke="none">
<path fill-rule="evenodd" clip-rule="evenodd" d="M3.09127 9.3251C5.54033 14.661 9.89837 18.9033 15.316 21.2019L15.3331 21.2092L16.3797 21.676C17.7124 22.2701 19.2789 21.8481 20.1334 20.6648L21.8796 18.2466C21.9863 18.0989 21.9588 17.8936 21.8171 17.7791L18.7686 15.3184C18.6171 15.1961 18.3942 15.2246 18.2783 15.3811L17.0919 16.983C16.8037 17.372 16.2834 17.5072 15.8425 17.3076C11.7915 15.4732 8.53618 12.216 6.70289 8.16267C6.50337 7.72152 6.63847 7.20087 7.02728 6.91256L8.62824 5.72543C8.78468 5.60944 8.81315 5.38647 8.69089 5.23484L6.23125 2.18421C6.11693 2.04243 5.91174 2.01489 5.76412 2.12152L3.33428 3.87667C2.14383 4.73656 1.72459 6.31716 2.33224 7.65454L3.09045 9.32332C3.09073 9.32391 3.091 9.32451 3.09127 9.3251ZM14.5049 23.0916C8.61833 20.5914 3.88364 15.9806 1.22256 10.1814L1.22096 10.1779L0.461158 8.50567C-0.55159 6.2767 0.147136 3.64238 2.13122 2.20921L4.56107 0.45406C5.5944 -0.292342 7.03072 -0.0995678 7.83094 0.892919L10.2906 3.94354C11.1464 5.00496 10.9471 6.56575 9.85201 7.37773L8.93463 8.05798C10.4843 11.0666 12.9403 13.524 15.9471 15.0745L16.627 14.1566C17.4385 13.0609 18.9984 12.8615 20.0592 13.7178L23.1076 16.1785C24.0998 16.9794 24.2922 18.4172 23.5456 19.4511L21.7994 21.8693C20.3753 23.8414 17.7644 24.5447 15.5432 23.5545L14.5049 23.0916Z"/>
</symbol>

<symbol id="cart" width="27" height="25" viewBox="0 0 27 25" xmlns="http://www.w3.org/2000/svg" stroke="none">
<path d="M25.8905 4.55175H4.77985L4.46608 1.0202C4.41493 0.442709 3.93557 0 3.36182 0H1.10901C0.496231 0 0 0.501311 0 1.12036C0 1.7394 0.496231 2.24071 1.10901 2.24071H2.34827C3.02538 9.86266 1.27512 -9.83709 3.62338 16.5944C3.71409 17.629 4.26727 18.7515 5.22018 19.5144C3.50157 21.7316 5.072 25 7.86745 25C10.1878 25 11.8241 22.6623 11.0284 20.4482H17.097C16.3023 22.6597 17.9355 25 20.2579 25C22.1116 25 23.6198 23.4764 23.6198 21.6038C23.6198 19.7312 22.1116 18.2075 20.2579 18.2075H7.87484C7.03267 18.2075 6.2986 17.694 5.98167 16.946L23.7026 15.8938C24.1861 15.8651 24.5959 15.5225 24.7135 15.0473L26.9663 5.94327C27.1414 5.23792 26.6124 4.55175 25.8905 4.55175ZM7.86745 22.7598C7.23675 22.7598 6.72364 22.2415 6.72364 21.6043C6.72364 20.9671 7.23675 20.4488 7.86745 20.4488C8.49816 20.4488 9.01126 20.9671 9.01126 21.6043C9.01126 22.2415 8.49816 22.7598 7.86745 22.7598ZM20.2585 22.7598C19.6278 22.7598 19.1147 22.2415 19.1147 21.6043C19.1147 20.9671 19.6278 20.4488 20.2585 20.4488C20.8892 20.4488 21.4023 20.9671 21.4023 21.6043C21.4023 22.2415 20.8892 22.7598 20.2585 22.7598ZM22.7597 13.7059L5.68319 14.7197L4.97919 6.79193H24.4709L22.7597 13.7059Z"/>
</symbol>
</svg>

